<svg width="1200" height="860" viewBox="0 0 1200 860" fill="none" xmlns="http://www.w3.org/2000/svg">
  <defs>
    <linearGradient id="bg" x1="120" y1="80" x2="1080" y2="760" gradientUnits="userSpaceOnUse">
      <stop stop-color="#0D1A3B"/>
      <stop offset="1" stop-color="#101D45"/>
    </linearGradient>
    <linearGradient id="accent" x1="300" y1="180" x2="980" y2="720" gradientUnits="userSpaceOnUse">
      <stop stop-color="#22D3EE"/>
      <stop offset="0.55" stop-color="#6366F1"/>
      <stop offset="1" stop-color="#F43F5E"/>
    </linearGradient>
    <filter id="glow" x="0" y="0" width="1200" height="860" filterUnits="userSpaceOnUse" color-interpolation-filters="sRGB">
      <feGaussianBlur stdDeviation="30" result="blur"/>
      <feBlend in="SourceGraphic" in2="blur" mode="screen"/>
    </filter>
  </defs>

  <rect x="20" y="20" width="1160" height="820" rx="42" fill="url(#bg)" stroke="#1E2A56" stroke-width="2"/>

  <circle cx="980" cy="150" r="130" fill="#34D399" fill-opacity="0.11"/>
  <circle cx="170" cy="690" r="170" fill="#F43F5E" fill-opacity="0.09"/>

  <path d="M130 620C250 555 350 525 480 545C630 567 735 460 855 470C960 478 1025 548 1070 594" stroke="url(#accent)" stroke-width="14" stroke-linecap="round"/>

  <g>
    <rect x="150" y="160" width="250" height="148" rx="22" fill="#162349" stroke="#27407B"/>
    <circle cx="194" cy="210" r="12" fill="#22D3EE"/>
    <rect x="220" y="196" width="150" height="11" rx="5.5" fill="#99A8CC"/>
    <rect x="220" y="220" width="122" height="10" rx="5" fill="#7484AA"/>
    <rect x="220" y="242" width="136" height="10" rx="5" fill="#7484AA"/>
  </g>

  <g>
    <rect x="480" y="120" width="250" height="148" rx="22" fill="#162349" stroke="#27407B"/>
    <circle cx="524" cy="170" r="12" fill="#6366F1"/>
    <rect x="550" y="156" width="150" height="11" rx="5.5" fill="#99A8CC"/>
    <rect x="550" y="180" width="122" height="10" rx="5" fill="#7484AA"/>
    <rect x="550" y="202" width="136" height="10" rx="5" fill="#7484AA"/>
  </g>

  <g>
    <rect x="810" y="188" width="250" height="148" rx="22" fill="#162349" stroke="#27407B"/>
    <circle cx="854" cy="238" r="12" fill="#F43F5E"/>
    <rect x="880" y="224" width="150" height="11" rx="5.5" fill="#99A8CC"/>
    <rect x="880" y="248" width="122" height="10" rx="5" fill="#7484AA"/>
    <rect x="880" y="270" width="136" height="10" rx="5" fill="#7484AA"/>
  </g>

  <g filter="url(#glow)">
    <circle cx="558" cy="545" r="116" fill="#162349" stroke="url(#accent)" stroke-width="9"/>
    <circle cx="500" cy="530" r="40" fill="#142449" stroke="#93C5FD" stroke-width="5"/>
    <rect x="474" y="575" width="52" height="84" rx="26" fill="#B5C8FF" fill-opacity="0.85"/>

    <circle cx="650" cy="530" r="52" fill="#142449" stroke="#A7F3D0" stroke-width="5"/>
    <rect x="614" y="588" width="72" height="106" rx="34" fill="#D1FAE5" fill-opacity="0.88"/>

    <circle cx="576" cy="590" r="30" fill="#142449" stroke="#FBCFE8" stroke-width="4"/>
    <rect x="553" y="628" width="46" height="66" rx="23" fill="#FCE7F3" fill-opacity="0.88"/>
  </g>

  <g>
    <circle cx="504" cy="760" r="10" fill="#22D3EE"/>
    <circle cx="622" cy="760" r="10" fill="#6366F1"/>
    <circle cx="742" cy="760" r="10" fill="#F43F5E"/>
  </g>
</svg>
