<svg width="1400" height="980" viewBox="0 0 1400 980" fill="none" xmlns="http://www.w3.org/2000/svg">
  <defs>
    <linearGradient id="panelBg" x1="160" y1="110" x2="1240" y2="890" gradientUnits="userSpaceOnUse">
      <stop stop-color="#0B1736"/>
      <stop offset="1" stop-color="#111E47"/>
    </linearGradient>
    <radialGradient id="screenGlow" cx="0" cy="0" r="1" gradientUnits="userSpaceOnUse" gradientTransform="translate(700 520) rotate(90) scale(420 540)">
      <stop stop-color="#2F4B9E" stop-opacity="0.42"/>
      <stop offset="1" stop-color="#2F4B9E" stop-opacity="0"/>
    </radialGradient>
    <linearGradient id="arcA" x1="244" y1="488" x2="1168" y2="214" gradientUnits="userSpaceOnUse">
      <stop stop-color="#4FD1FF"/>
      <stop offset="1" stop-color="#FFE5B4"/>
    </linearGradient>
    <linearGradient id="arcB" x1="248" y1="560" x2="1168" y2="376" gradientUnits="userSpaceOnUse">
      <stop stop-color="#E879F9"/>
      <stop offset="1" stop-color="#7EE7C9"/>
    </linearGradient>
    <linearGradient id="arcC" x1="938" y1="516" x2="1112" y2="668" gradientUnits="userSpaceOnUse">
      <stop stop-color="#F99BC2"/>
      <stop offset="1" stop-color="#F472B6"/>
    </linearGradient>
    <linearGradient id="chipFill" x1="0" y1="0" x2="1" y2="1">
      <stop stop-color="#283C71"/>
      <stop offset="1" stop-color="#1C2A55"/>
    </linearGradient>
    <filter id="softGlow" x="0" y="0" width="1400" height="980" filterUnits="userSpaceOnUse" color-interpolation-filters="sRGB">
      <feGaussianBlur stdDeviation="14" result="blur"/>
      <feBlend in="SourceGraphic" in2="blur" mode="screen"/>
    </filter>
  </defs>

  <rect x="24" y="24" width="1352" height="932" rx="42" fill="#07142E" stroke="#1B2C5D" stroke-width="3"/>
  <rect x="70" y="68" width="1260" height="844" rx="36" fill="url(#panelBg)" stroke="#263A72" stroke-width="2"/>
  <rect x="70" y="68" width="1260" height="844" rx="36" fill="url(#screenGlow)"/>

  <path d="M236 548C332 438 430 354 568 304C706 254 880 266 1052 374" stroke="url(#arcA)" stroke-width="13" stroke-linecap="round"/>
  <path d="M236 594C308 522 386 472 488 478C590 484 664 568 760 566C856 564 910 476 998 476" stroke="url(#arcB)" stroke-width="11" stroke-linecap="round"/>
  <path d="M1002 526C1040 572 1068 628 1072 694" stroke="url(#arcC)" stroke-width="10" stroke-linecap="round"/>

  <g filter="url(#softGlow)">
    <circle cx="466" cy="464" r="13" fill="#D8B4FE"/>
    <circle cx="832" cy="368" r="13" fill="#A7F3D0"/>
    <circle cx="920" cy="434" r="13" fill="#BAE6FD"/>
  </g>

  <line x1="466" y1="476" x2="466" y2="626" stroke="#8AA4D9" stroke-opacity="0.45" stroke-width="4"/>
  <line x1="832" y1="380" x2="832" y2="610" stroke="#8AA4D9" stroke-opacity="0.45" stroke-width="4"/>
  <line x1="920" y1="446" x2="920" y2="610" stroke="#8AA4D9" stroke-opacity="0.45" stroke-width="4"/>

  <!-- Father -->
  <g>
    <circle cx="604" cy="520" r="66" fill="#3A1F1D"/>
    <path d="M548 632C548 587.817 583.817 552 628 552H654C698.183 552 734 587.817 734 632V750H548V632Z" fill="#D7E6F2"/>
    <path d="M558 516C558 476.235 590.235 444 630 444H640C679.765 444 712 476.235 712 516V548H558V516Z" fill="#2E1A18"/>
    <path d="M568 552H706V594C706 627.137 679.137 654 646 654H628C594.863 654 568 627.137 568 594V552Z" fill="#A8654C"/>
    <path d="M598 580C611.333 593.333 624.667 593.333 638 580" stroke="#6B3A2C" stroke-width="5" stroke-linecap="round"/>
  </g>

  <!-- Mother -->
  <g>
    <circle cx="792" cy="530" r="72" fill="#402332"/>
    <path d="M730 650C730 602.503 768.503 564 816 564H856C903.497 564 942 602.503 942 650V770H730V650Z" fill="#F2B4A2"/>
    <path d="M726 534C726 490.922 760.922 456 804 456H820C863.078 456 898 490.922 898 534V570H726V534Z" fill="#2B1825"/>
    <path d="M742 572H882V620C882 658.66 850.66 690 812 690C773.34 690 742 658.66 742 620V572Z" fill="#C47F66"/>
    <path d="M784 604C799.333 618 814.667 618 830 604" stroke="#7B4B3D" stroke-width="5" stroke-linecap="round"/>
  </g>

  <!-- Tablet -->
  <g filter="url(#softGlow)">
    <rect x="636" y="652" width="214" height="126" rx="18" fill="#C6CFDF"/>
    <rect x="644" y="660" width="198" height="110" rx="14" fill="#8E9AB5"/>
    <circle cx="744" cy="714" r="10" fill="#6E7896"/>
    <circle cx="828" cy="676" r="4" fill="#6E7896"/>
  </g>

  <!-- Left chips -->
  <g>
    <rect x="210" y="580" width="234" height="96" rx="20" fill="url(#chipFill)" stroke="#35508A"/>
    <rect x="236" y="608" width="28" height="28" rx="7" fill="#19366D" stroke="#4DD4FF"/>
    <path d="M244 622C248 612 252 612 256 622" stroke="#4DD4FF" stroke-width="2"/>
    <text x="286" y="621" fill="#E5EEFF" font-family="Inter,Arial,sans-serif" font-size="34" font-weight="700">Prenatal</text>
    <text x="286" y="656" fill="#B3C5EA" font-family="Inter,Arial,sans-serif" font-size="30" font-weight="600">Care</text>
  </g>

  <g>
    <rect x="206" y="706" width="254" height="96" rx="20" fill="url(#chipFill)" stroke="#35508A"/>
    <rect x="234" y="734" width="28" height="28" rx="7" fill="#352469" stroke="#C084FC"/>
    <path d="M244 749L252 741L258 747" stroke="#C084FC" stroke-width="2"/>
    <text x="286" y="747" fill="#E5EEFF" font-family="Inter,Arial,sans-serif" font-size="34" font-weight="700">Labor</text>
    <text x="286" y="782" fill="#B3C5EA" font-family="Inter,Arial,sans-serif" font-size="30" font-weight="600">Support</text>
  </g>

  <!-- Right chips -->
  <g>
    <rect x="944" y="590" width="250" height="96" rx="20" fill="url(#chipFill)" stroke="#35508A"/>
    <rect x="972" y="618" width="28" height="28" rx="7" fill="#352469" stroke="#F9A8D4"/>
    <circle cx="986" cy="632" r="7" stroke="#F9A8D4" stroke-width="2"/>
    <text x="1022" y="631" fill="#E5EEFF" font-family="Inter,Arial,sans-serif" font-size="34" font-weight="700">Fetal</text>
    <text x="1022" y="666" fill="#B3C5EA" font-family="Inter,Arial,sans-serif" font-size="30" font-weight="600">Support</text>
  </g>

  <g>
    <rect x="938" y="714" width="280" height="96" rx="20" fill="url(#chipFill)" stroke="#35508A"/>
    <rect x="968" y="742" width="28" height="28" rx="7" fill="#163A47" stroke="#A7F3D0"/>
    <path d="M982 748V764M974 756H990" stroke="#A7F3D0" stroke-width="2"/>
    <text x="1014" y="755" fill="#E5EEFF" font-family="Inter,Arial,sans-serif" font-size="34" font-weight="700">Postpartum</text>
    <text x="1014" y="790" fill="#B3C5EA" font-family="Inter,Arial,sans-serif" font-size="30" font-weight="600">Recovery</text>
  </g>
</svg>
